<svg width="90" height="90" viewBox="0 0 90 90" fill="none" xmlns="http://www.w3.org/2000/svg">
<path opacity="0.4" d="M63.75 29.0625C63.0375 29.0625 62.325 28.8 61.7625 28.2375C60.675 27.15 60.675 25.35 61.7625 24.2625L69.45 16.575C62.85 10.95 54.3375 7.5 45 7.5C24.3 7.5 7.5 24.3 7.5 45C7.5 65.7 24.3 82.5 45 82.5C65.7 82.5 82.5 65.7 82.5 45C82.5 35.6625 79.0499 27.15 73.4249 20.55L65.7375 28.2375C65.175 28.8 64.4625 29.0625 63.75 29.0625Z" fill="white"/>
<path d="M51.5625 44.325L47.8125 43.0125V34.6875H48.1124C50.025 34.6875 51.5625 36.375 51.5625 38.4375C51.5625 39.975 52.8375 41.25 54.375 41.25C55.9125 41.25 57.1875 39.975 57.1875 38.4375C57.1875 33.2625 53.1374 29.0625 48.1124 29.0625H47.8125V28.125C47.8125 26.5875 46.5375 25.3125 45 25.3125C43.4625 25.3125 42.1875 26.5875 42.1875 28.125V29.0625H41.0625C36.525 29.0625 32.8125 32.8875 32.8125 37.6125C32.8125 43.0875 36 44.85 38.4375 45.7125L42.1875 47.025V55.35H41.8876C39.9751 55.35 38.4375 53.6625 38.4375 51.6C38.4375 50.0625 37.1625 48.7875 35.625 48.7875C34.0875 48.7875 32.8125 50.0625 32.8125 51.6C32.8125 56.775 36.8626 60.975 41.8876 60.975H42.1875V61.9125C42.1875 63.45 43.4625 64.725 45 64.725C46.5375 64.725 47.8125 63.45 47.8125 61.9125V60.975H48.9375C53.475 60.975 57.1875 57.15 57.1875 52.425C57.1875 46.9125 54 45.15 51.5625 44.325ZM40.275 40.35C39 39.9 38.4375 39.6375 38.4375 37.575C38.4375 35.9625 39.6375 34.65 41.0625 34.65H42.1875V40.9875L40.275 40.35ZM48.9375 55.3125H47.8125V48.975L49.725 49.65C51 50.1 51.5625 50.3625 51.5625 52.425C51.5625 54 50.3625 55.3125 48.9375 55.3125Z" fill="white"/>
<path d="M85.0874 6.41247C84.7874 5.73747 84.2624 5.17498 83.5499 4.87498C83.2124 4.72498 82.8374 4.64996 82.4624 4.64996H67.4624C65.9249 4.64996 64.6499 5.92496 64.6499 7.46246C64.6499 8.99996 65.9249 10.275 67.4624 10.275H75.6749L69.4125 16.5375C70.8375 17.775 72.15 19.0875 73.3875 20.5125L79.6499 14.25V22.5C79.6499 24.0375 80.9249 25.3125 82.4624 25.3125C83.9999 25.3125 85.2749 24.0375 85.2749 22.5V7.49997C85.3124 7.12497 85.2374 6.78747 85.0874 6.41247Z" fill="white"/>
</svg>
