<svg width="90" height="90" viewBox="0 0 90 90" fill="none" xmlns="http://www.w3.org/2000/svg">
<path opacity="0.4" d="M79.0875 80.625C79.0875 81.675 78.2625 82.5 77.2125 82.5H12.7875C11.7375 82.5 10.9125 81.675 10.9125 80.625C10.9125 65.1 26.2125 52.5 45 52.5C48.8625 52.5 52.6125 53.0249 56.0625 54.0374C53.85 56.6624 52.5 60.075 52.5 63.75C52.5 66.5625 53.2874 69.225 54.6749 71.475C55.4249 72.75 56.4 73.9124 57.525 74.8874C60.15 77.2874 63.6375 78.75 67.5 78.75C71.7 78.75 75.4875 77.025 78.1875 74.25C78.7875 76.275 79.0875 78.4125 79.0875 80.625Z" fill="white"/>
<path d="M78.6375 53.7376C75.9375 50.6626 71.925 48.75 67.5 48.75C63.3 48.75 59.475 50.4751 56.7375 53.2876C54.1125 55.9876 52.5 59.7 52.5 63.75C52.5 66.5625 53.2874 69.225 54.6749 71.475C55.4249 72.75 56.4 73.9124 57.525 74.8874C60.15 77.2874 63.6375 78.75 67.5 78.75C72.975 78.75 77.7376 75.825 80.3251 71.475C81.1126 70.2 81.7125 68.7375 82.05 67.2375C82.35 66.1125 82.5 64.95 82.5 63.75C82.5 59.925 81.0375 56.4001 78.6375 53.7376ZM73.125 66.4874H70.3125V69.4125C70.3125 70.95 69.0375 72.225 67.5 72.225C65.9625 72.225 64.6875 70.95 64.6875 69.4125V66.4874H61.875C60.3375 66.4874 59.0625 65.2124 59.0625 63.6749C59.0625 62.1374 60.3375 60.8624 61.875 60.8624H64.6875V58.2001C64.6875 56.6626 65.9625 55.3876 67.5 55.3876C69.0375 55.3876 70.3125 56.6626 70.3125 58.2001V60.8624H73.125C74.6625 60.8624 75.9375 62.1374 75.9375 63.6749C75.9375 65.2124 74.6625 66.4874 73.125 66.4874Z" fill="white"/>
<path d="M45 45C55.3553 45 63.75 36.6053 63.75 26.25C63.75 15.8947 55.3553 7.5 45 7.5C34.6447 7.5 26.25 15.8947 26.25 26.25C26.25 36.6053 34.6447 45 45 45Z" fill="white"/>
</svg>
