<svg width="80" viewBox="0 0 150 48" fill="none" xmlns="http://www.w3.org/2000/svg">
<path d="M20.7214 15.1923C20.7214 28.9323 20.7058 29.9339 20.4398 30.8885C19.7199 33.455 17.9828 35.1451 15.5102 35.6615C13.2567 36.1467 10.7685 35.3172 8.7967 33.4237C8.20203 32.8447 7.56041 32.0935 7.40392 31.7649C7.23177 31.4519 7.01268 31.1858 6.90314 31.1858C6.7936 31.1858 5.38516 32.516 3.75764 34.1435L0.799927 37.1169L1.23811 37.7116C3.3977 40.5597 7.57606 43.0323 11.6292 43.8617C13.5228 44.2373 16.4805 44.2843 18.3897 43.94C23.5696 43.0323 27.7636 39.3391 29.172 34.4722C29.3598 33.8306 29.5946 33.1576 29.6885 32.9855C29.8293 32.7508 29.8919 28.682 29.9232 16.5851L29.9702 0.513283H25.338H20.7214V15.1923Z" fill="white" fill-opacity="0.4"/>
<path d="M143.38 10.6227L140.798 13.2361L138.858 12.2815C137.434 11.5773 136.448 11.2174 135.133 10.9044C133.459 10.5131 133.193 10.4975 130.36 10.5601C127.715 10.6383 127.215 10.6853 125.994 11.0609C115.306 14.269 110.188 25.3643 115.087 34.7695C115.446 35.4424 115.932 36.2718 116.182 36.6161L116.636 37.2108L113.725 40.1372L110.814 43.048L112.786 45.0511L114.758 47.0698L117.716 44.1278L120.673 41.1701L121.988 41.8899C123.537 42.7193 125.399 43.4548 126.823 43.7991C128.185 44.1434 132.379 44.2686 133.803 44.0339C137.34 43.4235 140.626 41.796 143.146 39.3704C147.48 35.192 149.296 29.6835 148.169 23.9872C147.84 22.2657 146.839 19.9496 145.634 18.15L144.93 17.0702L147.465 14.535L150 11.9998L148.028 10.0593C146.948 8.97952 146.041 8.08751 146.009 8.05621C145.978 8.04056 144.804 9.18295 143.38 10.6227ZM132.363 18.2752C133.568 18.5256 134.805 18.9637 134.805 19.1202C134.805 19.1828 132.129 21.9058 128.858 25.1609C123.318 30.6694 122.88 31.0606 122.692 30.7789C121.988 29.7774 121.737 26.7258 122.223 24.8635C122.363 24.3471 122.52 23.8776 122.583 23.8307C122.645 23.7837 122.911 23.3612 123.162 22.9074C124.46 20.4817 127.215 18.5569 129.875 18.1969C131.221 18.0248 131.19 18.0248 132.363 18.2752ZM139.562 25.1922C140.36 28.2438 139.233 31.8274 136.776 34.0966C134.147 36.5535 130.736 37.1638 127.559 35.7554L126.636 35.3642L132.723 29.2766L138.795 23.2047L139.061 23.7211C139.202 24.0028 139.437 24.6601 139.562 25.1922Z" fill="white" fill-opacity="0.4"/>
<path d="M92.6298 10.6227C91.4875 10.873 90.7519 11.1234 89.5782 11.6868C88.5141 12.2032 87.9664 12.5945 86.8866 13.6743L85.5094 15.0201V13.0796V11.1547H80.8929H76.2764V27.3517V43.5487L80.8616 43.5174L85.4312 43.4705L85.5094 33.2984L85.5877 23.1264L86.1198 21.9997C87.2309 19.6053 89.5156 18.1969 92.2386 18.1969C94.1635 18.1969 95.4937 18.7759 96.683 20.0905C97.4498 20.9355 97.7315 21.4676 98.154 22.8134C98.3575 23.4863 98.4044 25.0669 98.4514 33.5645L98.514 43.5487H102.896H107.262V32.6255C107.246 22.5943 107.231 21.6084 106.965 20.3095C106.245 16.8824 104.852 14.535 102.426 12.704C100.204 11.0139 98.5766 10.5288 95.212 10.5444C93.96 10.5601 92.802 10.5914 92.6298 10.6227Z" fill="white" fill-opacity="0.4"/>
<path d="M37.9356 22.3909C37.9356 31.4988 37.9826 33.8149 38.1547 34.6756C38.2799 35.2546 38.452 35.818 38.5303 35.9276C38.6085 36.0371 38.765 36.397 38.8746 36.7413C39.8292 39.7616 42.7556 42.5785 46.0732 43.7052C47.5286 44.206 51.0184 44.3312 52.7242 43.94C55.2906 43.3766 57.3407 42.2029 58.89 40.4658L59.6881 39.5582V41.5456V43.5488H64.2264H68.7647V27.3518V11.1548H64.2264H59.6881V20.4817C59.6881 30.5442 59.6255 31.4832 58.9056 32.9073C57.325 36.0058 53.2875 37.3986 50.2359 35.8963C48.3737 34.9886 47.2469 33.3298 46.8557 30.9511C46.7618 30.419 46.6992 25.959 46.6992 20.5756V11.1548H42.3174H37.9356V22.3909Z" fill="white" fill-opacity="0.4"/>
</svg>
