<svg width="201" height="48" viewBox="0 0 201 48" fill="none" xmlns="http://www.w3.org/2000/svg">
<path d="M24.6135 47.6705C11.476 47.6705 0.799927 37.0805 0.799927 24.0755C0.799927 11.0705 11.476 0.480469 24.6135 0.480469C37.7509 0.480469 48.427 11.0705 48.427 24.0755C48.427 37.0805 37.7509 47.6705 24.6135 47.6705ZM24.6135 2.28047C12.5067 2.28047 2.64594 12.0605 2.64594 24.0755C2.64594 36.0905 12.5067 45.8705 24.6135 45.8705C36.7203 45.8705 46.581 36.0905 46.581 24.0755C46.581 12.0605 36.7203 2.28047 24.6135 2.28047Z" fill="white"/>
<path d="M10.43 22.6201H7.50712V25.5301H10.43V22.6201Z" fill="white"/>
<path d="M18.2448 22.1396H14.3374V26.0096H18.2448V22.1396Z" fill="white"/>
<path d="M28.0133 21.1797H22.1522V26.9847H28.0133V21.1797Z" fill="white"/>
<path d="M41.7199 19.7246H32.9359V28.4246H41.7199V19.7246Z" fill="white"/>
<path d="M189.988 29.31C187.096 29.31 185.065 27.09 185.05 23.76C185.05 20.835 186.788 18.675 189.588 18.675C192.295 18.675 194.495 20.775 194.495 24.075C194.495 27.975 191.941 29.31 189.988 29.31ZM189.68 30.21C193.618 30.195 196.033 27.36 196.033 23.7C196.033 20.385 193.603 17.79 189.88 17.79C185.757 17.79 183.511 20.835 183.511 24.105C183.511 26.955 185.434 30.225 189.68 30.21ZM172.281 24.855C172.251 24.855 172.235 24.84 172.251 24.795L174.02 20.19L175.943 24.795C175.958 24.84 175.943 24.855 175.912 24.855H172.281ZM176.25 25.77C176.296 25.77 176.296 25.785 176.312 25.815C176.866 27.105 177.758 29.25 178.019 29.985C178.219 29.955 178.665 29.94 179.081 29.94C179.265 29.94 179.542 29.955 179.835 29.97C179.419 29.355 178.496 27.3 177.773 25.605C176.373 22.395 174.789 18.84 174.604 18.45C174.373 17.925 174.296 17.805 174.22 17.805C174.127 17.805 174.035 18 173.85 18.45L170.635 26.235C169.989 27.765 169.374 29.16 168.958 30C169.082 29.985 169.497 29.955 169.82 29.955C170.158 29.955 170.312 29.955 170.466 29.985C170.666 29.235 171.404 27.21 171.912 25.83C171.927 25.8 171.943 25.785 171.989 25.785L176.25 25.77ZM155.852 22.53C155.852 20.895 155.852 19.365 155.883 19.065C155.883 19.02 155.898 18.99 155.944 18.96C156.19 18.9 156.836 18.84 157.436 18.84C159.513 18.84 161.421 19.35 162.544 20.685C163.39 21.705 163.697 22.92 163.697 24.285C163.697 26.055 162.959 27.435 162.036 28.2C161.128 28.965 159.836 29.28 158.513 29.28C157.175 29.28 156.206 29.085 155.975 28.92C155.913 28.875 155.898 28.695 155.883 28.38C155.867 27.945 155.852 26.655 155.852 24.975V22.53ZM154.452 25.485C154.452 27.84 154.39 29.28 154.36 29.955C155.052 29.91 155.713 29.985 156.482 30.06C157.067 30.105 157.682 30.135 158.375 30.135C161.205 30.135 162.728 29.07 163.513 28.29C164.42 27.36 165.22 25.86 165.22 23.835C165.22 21.945 164.482 20.655 163.682 19.83C162.067 18.225 159.605 17.97 157.498 17.97C156.421 17.97 155.498 18.03 155.113 18.03C154.852 18.03 154.498 18.015 154.329 18C154.39 18.36 154.483 19.59 154.483 22.545V25.485H154.452ZM134.346 25.395C134.346 27.63 134.269 29.415 134.223 29.97C134.407 29.955 134.776 29.94 135.253 29.94C135.869 29.94 137.084 30.03 139.345 30.03C139.961 30.03 140.115 30.015 140.176 30C140.238 29.685 140.376 29.115 140.484 28.77C140.022 28.995 139.33 29.1 137.792 29.1C137.099 29.1 136.607 29.055 136.238 29.025C136.084 29.01 135.915 28.98 135.869 28.935C135.792 28.86 135.761 28.41 135.761 25.29V24.15C135.761 24.12 135.792 24.09 135.823 24.09C136.115 24.09 138.022 24.12 138.561 24.15C139.176 24.195 139.438 24.255 139.668 24.375C139.653 24.06 139.715 23.43 139.791 23.055C139.622 23.1 139.238 23.145 138.392 23.175C137.93 23.19 136.023 23.19 135.807 23.19C135.776 23.19 135.746 23.16 135.746 23.115V19.005C135.746 18.96 135.792 18.945 135.807 18.945C137.207 18.945 138.145 18.975 138.638 19.02C139.422 19.08 139.745 19.17 139.93 19.275C139.93 18.75 140.007 18.21 140.053 17.97C139.761 18.03 139.099 18.045 138.761 18.045H135.161C134.838 18.045 134.392 18.045 134.207 18.015C134.3 18.465 134.376 20.025 134.376 22.59V25.395H134.346ZM122.577 25.395C122.577 27.63 122.516 29.415 122.47 29.97C122.67 29.94 122.916 29.94 123.285 29.94C124.07 29.94 125.223 30.03 127.592 30.03C128.331 30.03 128.485 30.015 128.562 30C128.623 29.76 128.792 29.07 128.931 28.785C128.546 28.965 127.885 29.1 126.069 29.1C125.377 29.1 124.808 29.085 124.485 29.055C124.316 29.04 124.177 29.01 124.1 28.95C124.023 28.89 123.993 28.485 123.993 25.29V22.56C123.993 20.34 124.054 18.6 124.116 18.015C123.962 18.045 123.5 18.06 123.147 18.06C122.947 18.06 122.562 18.06 122.439 18.03C122.531 18.495 122.608 20.34 122.608 22.605V25.395H122.577ZM109.317 25.395C109.317 27.45 109.271 29.34 109.209 29.97C109.455 29.955 109.901 29.94 110.148 29.955C110.517 29.97 111.301 30.06 112.424 30.06C115.301 30.06 116.655 28.32 116.655 26.49C116.655 24.69 115.363 23.7 113.993 23.31C114.686 22.935 115.547 22.095 115.547 20.76C115.547 19.59 114.87 17.985 112.101 17.985C111.286 17.985 110.486 18.045 109.886 18.045C109.655 18.045 109.363 18.03 109.148 18.015C109.255 18.585 109.317 20.325 109.317 22.59V25.395ZM115.178 26.7C115.178 28.425 113.855 29.205 112.486 29.205C111.563 29.205 110.932 29.04 110.763 28.89C110.717 28.83 110.686 28.14 110.686 25.41V24.045C110.686 24.015 110.701 24 110.748 23.985C110.901 23.97 111.655 23.97 112.178 24C112.855 24.03 113.547 24.15 114.116 24.585C115.009 25.245 115.178 25.98 115.178 26.7ZM110.671 18.99C110.671 18.945 110.686 18.915 110.717 18.9C110.824 18.87 111.209 18.84 111.747 18.84C113.393 18.84 114.24 19.74 114.24 21.09C114.24 21.78 113.917 22.545 113.255 22.98C113.055 23.1 112.932 23.13 112.64 23.13C112.378 23.13 111.071 23.115 110.748 23.1C110.701 23.085 110.686 23.055 110.686 23.025L110.671 18.99ZM95.7794 19.005C95.7794 18.945 95.7794 18.915 95.841 18.9C96.0717 18.855 96.5178 18.84 97.0255 18.84C98.8869 18.84 99.9945 19.875 99.9945 21.555C99.9945 22.695 99.4099 23.52 98.7638 23.985C98.5485 24.135 98.2869 24.18 97.8254 24.18C96.964 24.18 96.1486 24.135 95.8256 24.075C95.7948 24.06 95.7794 24.03 95.7794 23.925V19.005ZM94.4103 25.395C94.4103 27.45 94.3488 29.445 94.2411 29.985C94.4257 29.955 94.9026 29.94 95.1949 29.94C95.4718 29.94 95.764 29.94 95.9025 29.97C95.8256 29.28 95.7487 27.555 95.7487 25.56V25.065C95.7487 25.005 95.7487 24.975 95.7948 24.975C96.5025 24.99 97.687 25.005 98.0254 24.99C98.1023 24.99 98.1792 25.02 98.2408 25.095C98.9946 26.07 100.502 28.26 101.394 29.13C102.056 29.805 102.456 30.015 103.179 30.015C103.563 30.015 104.025 30 104.24 29.925C103.933 29.805 103.425 29.385 102.748 28.635C101.625 27.465 100.441 25.86 99.3945 24.51C100.718 23.625 101.379 22.515 101.379 21.135C101.379 19.995 100.779 19.065 99.933 18.54C99.2407 18.105 98.1946 17.97 97.087 17.97C96.5178 17.97 95.2718 18.03 94.9487 18.03C94.7026 18.03 94.4872 18.03 94.1949 18C94.3642 18.525 94.3949 20.31 94.3949 22.575V25.395H94.4103ZM81.4267 24.855C81.3959 24.855 81.3805 24.84 81.3959 24.795L83.165 20.19L85.0879 24.795C85.1033 24.84 85.0879 24.855 85.0572 24.855H81.4267ZM85.3802 25.77C85.4264 25.77 85.4264 25.785 85.4418 25.815C85.9956 27.105 86.8878 29.25 87.1493 29.985C87.3493 29.955 87.7954 29.94 88.2108 29.94C88.3954 29.94 88.6723 29.955 88.9646 29.97C88.5492 29.355 87.6262 27.3 86.9032 25.605C85.5033 22.395 83.9188 18.84 83.7342 18.45C83.5035 17.925 83.4265 17.805 83.3496 17.805C83.2573 17.805 83.165 18 82.9804 18.45L79.7653 26.235C79.1192 27.765 78.5038 29.16 78.0885 30C78.2115 29.985 78.6269 29.955 78.95 29.955C79.2884 29.955 79.4422 29.955 79.5961 29.985C79.796 29.235 80.5344 27.21 81.0421 25.83C81.0575 25.8 81.0729 25.785 81.119 25.785L85.3802 25.77ZM59.5514 29.985C59.7207 29.955 60.0283 29.94 60.4129 29.94C60.5667 29.94 60.859 29.94 61.0282 29.97C61.0282 28.995 61.4436 23.76 61.6282 20.94C62.9204 23.73 64.3511 26.49 65.9817 29.865C66.0894 30.12 66.1509 30.12 66.274 29.835C67.6431 27.03 69.3815 23.775 70.7506 20.985C70.9352 23.94 71.3198 28.995 71.3044 30C71.5198 29.97 71.889 29.955 72.2889 29.955C72.6274 29.955 72.8581 29.955 72.9812 29.985C72.7504 29.07 72.3197 24.435 71.9505 20.7C71.8736 19.845 71.7813 19.005 71.7197 18.24C71.6736 17.865 71.6428 17.79 71.5659 17.79C71.5197 17.79 71.4428 17.85 71.2736 18.135C70.766 19.11 70.3045 20.055 69.443 21.525L66.274 27.645L62.6897 20.76C62.2435 19.98 61.459 18.45 61.2282 18.06C61.1359 17.91 61.0744 17.79 61.0129 17.79C60.9667 17.79 60.9359 17.835 60.9052 18.03C60.8283 18.795 60.736 19.62 60.6437 20.52C60.2745 24.3 59.7207 29.145 59.5514 29.985Z" fill="white"/>
</svg>
