<svg width="390" height="627" viewBox="0 0 390 627" fill="none" xmlns="http://www.w3.org/2000/svg">
<g opacity="0.7" filter="url(#filter0_bdi_754_2043)">
<path d="M390 627H0C0 627 0 119.085 0 83.4202C0 -67.7986 390 52.0803 390 52.0803V627Z" fill="url(#paint0_linear_754_2043)" shape-rendering="crispEdges"/>
<path d="M389.5 626.5H0.5V626.426V626.306V626.176V626.034V625.881V625.717V625.542V625.356V625.159V624.952V624.733V624.504V624.264V624.014V623.753V623.481V623.199V622.906V622.603V622.29V621.966V621.632V621.287V620.932V620.568V620.193V619.808V619.412V619.007V618.592V618.167V617.732V617.288V616.833V616.369V615.895V615.411V614.918V614.415V613.903V613.381V612.85V612.309V611.76V611.2V610.632V610.054V609.467V608.871V608.266V607.652V607.029V606.397V605.756V605.106V604.447V603.78V603.104V602.419V601.725V601.023V600.312V599.593V598.865V598.129V597.385V596.632V595.871V595.102V594.324V593.538V592.744V591.942V591.132V590.315V589.489V588.655V587.813V586.964V586.106V585.241V584.369V583.489V582.601V581.705V580.802V579.892V578.974V578.049V577.116V576.177V575.229V574.275V573.314V572.345V571.37V570.387V569.397V568.401V567.398V566.387V565.37V564.346V563.316V562.279V561.235V560.184V559.127V558.064V556.994V555.917V554.835V553.746V552.65V551.549V550.441V549.327V548.207V547.081V545.949V544.811V543.667V542.517V541.361V540.2V539.033V537.86V536.681V535.497V534.307V533.111V531.911V530.704V529.493V528.275V527.053V525.825V524.592V523.354V522.111V520.863V519.61V518.351V517.088V515.82V514.546V513.268V511.986V510.698V509.406V508.109V506.808V505.502V504.191V502.876V501.556V500.232V498.904V497.572V496.235V494.894V493.549V492.199V490.846V489.488V488.127V486.761V485.392V484.019V482.642V481.261V479.876V478.488V477.096V475.701V474.301V472.899V471.493V470.083V468.67V467.254V465.835V464.412V462.986V461.557V460.124V458.689V457.25V455.809V454.365V452.917V451.467V450.014V448.559V447.1V445.639V444.175V442.709V441.24V439.768V438.294V436.818V435.339V433.858V432.375V430.889V429.402V427.912V426.419V424.925V423.429V421.931V420.431V418.929V417.425V415.919V414.412V412.903V411.392V409.879V408.365V406.85V405.333V403.814V402.294V400.773V399.25V397.726V396.201V394.674V393.147V391.618V390.088V388.557V387.026V385.493V383.959V382.425V380.89V379.354V377.817V376.28V374.742V373.203V371.664V370.124V368.584V367.044V365.503V363.962V362.421V360.879V359.337V357.795V356.253V354.711V353.169V351.626V350.084V348.542V347.001V345.459V343.918V342.377V340.836V339.296V337.756V336.216V334.677V333.139V331.601V330.064V328.528V326.992V325.457V323.923V322.39V320.857V319.326V317.796V316.266V314.738V313.211V311.685V310.16V308.636V307.114V305.593V304.074V302.556V301.039V299.524V298.011V296.499V294.989V293.48V291.973V290.468V288.965V287.464V285.964V284.467V282.971V281.478V279.987V278.498V277.011V275.526V274.043V272.563V271.085V269.61V268.137V266.666V265.198V263.733V262.27V260.81V259.352V257.898V256.446V254.997V253.551V252.107V250.667V249.23V247.795V246.364V244.936V243.511V242.09V240.671V239.256V237.845V236.436V235.032V233.63V232.233V230.838V229.448V228.061V226.678V225.298V223.923V222.551V221.183V219.819V218.459V217.103V215.751V214.403V213.059V211.72V210.385V209.054V207.727V206.405V205.087V203.774V202.465V201.16V199.86V198.565V197.275V195.989V194.708V193.432V192.161V190.894V189.633V188.376V187.125V185.878V184.637V183.401V182.17V180.944V179.724V178.508V177.299V176.094V174.896V173.702V172.514V171.332V170.156V168.985V167.82V166.66V165.507V164.359V163.217V162.081V160.952V159.828V158.71V157.598V156.493V155.394V154.301V153.214V152.134V151.06V149.992V148.931V147.876V146.828V145.787V144.752V143.724V142.703V141.688V140.68V139.679V138.685V137.698V136.718V135.745V134.78V133.821V132.869V131.925V130.988V130.058V129.135V128.22V127.313V126.413V125.52V124.635V123.757V122.888V122.025V121.171V120.324V119.486V118.655V117.832V117.017V116.21V115.411V114.62V113.837V113.063V112.297V111.538V110.789V110.047V109.314V108.59V107.874V107.166V106.467V105.777V105.095V104.422V103.758V103.103V102.456V101.818V101.19V100.57V99.9589V99.3572V98.7646V98.1811V97.6068V97.0417V96.4859V95.9394V95.4023V94.8746V94.3563V93.8475V93.3483V92.8586V92.3786V91.9083V91.4476V90.9967V90.5557V90.1244V89.7031V89.2916V88.8902V88.4988V88.1174V87.7462V87.3851V87.0342V86.6935V86.3632V86.0431V85.7334V85.4341V85.1454V84.8671V84.5993V84.3421V84.0956V83.8597V83.6346V83.4202C0.5 64.6364 6.5509 50.0964 17.1198 39.0021C27.6998 27.8962 42.8405 20.2091 61.0697 15.2101C97.537 5.20972 146.209 6.00806 194.944 11.54C243.665 17.0704 292.393 27.3246 328.945 36.1979C347.219 40.6342 362.448 44.7248 373.108 47.7061C378.437 49.1967 382.624 50.41 385.479 51.2505C386.906 51.6708 388 51.9978 388.737 52.2197C389.061 52.3173 389.316 52.3945 389.5 52.4504V626.5Z" stroke="url(#paint1_linear_754_2043)" shape-rendering="crispEdges"/>
</g>
<defs>
<filter id="filter0_bdi_754_2043" x="-30" y="-23" width="450" height="680" filterUnits="userSpaceOnUse" color-interpolation-filters="sRGB">
<feFlood flood-opacity="0" result="BackgroundImageFix"/>
<feGaussianBlur in="BackgroundImage" stdDeviation="15"/>
<feComposite in2="SourceAlpha" operator="in" result="effect1_backgroundBlur_754_2043"/>
<feColorMatrix in="SourceAlpha" type="matrix" values="0 0 0 0 0 0 0 0 0 0 0 0 0 0 0 0 0 0 127 0" result="hardAlpha"/>
<feOffset dy="7"/>
<feGaussianBlur stdDeviation="7"/>
<feComposite in2="hardAlpha" operator="out"/>
<feColorMatrix type="matrix" values="0 0 0 0 0 0 0 0 0 0 0 0 0 0 0 0 0 0 0.1 0"/>
<feBlend mode="normal" in2="effect1_backgroundBlur_754_2043" result="effect2_dropShadow_754_2043"/>
<feBlend mode="normal" in="SourceGraphic" in2="effect2_dropShadow_754_2043" result="shape"/>
<feColorMatrix in="SourceAlpha" type="matrix" values="0 0 0 0 0 0 0 0 0 0 0 0 0 0 0 0 0 0 127 0" result="hardAlpha"/>
<feOffset dy="14"/>
<feGaussianBlur stdDeviation="12"/>
<feComposite in2="hardAlpha" operator="arithmetic" k2="-1" k3="1"/>
<feColorMatrix type="matrix" values="0 0 0 0 0.0670312 0 0 0 0 0.0775564 0 0 0 0 0.1125 0 0 0 0.4 0"/>
<feBlend mode="normal" in2="shape" result="effect3_innerShadow_754_2043"/>
</filter>
<linearGradient id="paint0_linear_754_2043" x1="195" y1="225.8" x2="195" y2="-4.27603" gradientUnits="userSpaceOnUse">
<stop stop-color="white" stop-opacity="0.06"/>
<stop offset="1" stop-color="white" stop-opacity="0.06"/>
</linearGradient>
<linearGradient id="paint1_linear_754_2043" x1="386.706" y1="222.043" x2="-15.03" y2="26.6227" gradientUnits="userSpaceOnUse">
<stop stop-color="white"/>
<stop offset="1" stop-color="white" stop-opacity="0"/>
</linearGradient>
</defs>
</svg>
